<svg width="874" height="221" viewBox="0 0 874 221" fill="none" xmlns="http://www.w3.org/2000/svg">
<g clip-path="url(#clip0_976_3489)">
<path d="M588.883 174V125.163H597.872L598.428 130.908C599.54 129.302 600.776 128.067 602.135 127.202C603.556 126.275 605.069 125.595 606.676 125.163C608.282 124.73 609.919 124.514 611.587 124.514C614.862 124.514 617.549 125.194 619.649 126.553C621.812 127.912 623.48 129.766 624.654 132.113C625.827 130.445 627.156 129.055 628.638 127.943C630.121 126.769 631.758 125.904 633.55 125.348C635.342 124.792 637.257 124.514 639.296 124.514C642.941 124.514 645.875 125.317 648.099 126.924C650.385 128.468 652.022 130.569 653.011 133.225C654.061 135.882 654.586 138.94 654.586 142.4V174H644.948V146.199C644.948 144.716 644.887 143.234 644.763 141.751C644.639 140.268 644.269 138.878 643.651 137.581C643.095 136.222 642.261 135.14 641.149 134.337C640.099 133.472 638.585 133.04 636.608 133.04C634.693 133.04 633.087 133.472 631.789 134.337C630.554 135.202 629.534 136.376 628.731 137.859C627.99 139.28 627.434 140.824 627.063 142.492C626.754 144.16 626.6 145.828 626.6 147.496V174H616.962V146.106C616.962 144.685 616.9 143.234 616.777 141.751C616.653 140.268 616.344 138.878 615.85 137.581C615.356 136.222 614.522 135.14 613.348 134.337C612.236 133.472 610.722 133.04 608.807 133.04C606.027 133.04 603.865 133.843 602.32 135.449C600.837 136.994 599.818 138.909 599.262 141.195C598.706 143.419 598.428 145.55 598.428 147.589V174H588.883ZM687.306 174.556C682.178 174.556 677.884 173.506 674.425 171.405C670.965 169.305 668.339 166.401 666.548 162.694C664.818 158.926 663.953 154.601 663.953 149.72C663.953 144.778 664.849 140.423 666.64 136.654C668.494 132.885 671.15 129.92 674.61 127.758C678.131 125.595 682.363 124.514 687.306 124.514C691.074 124.514 694.349 125.225 697.129 126.646C699.909 128.005 702.195 129.858 703.986 132.206C705.84 134.553 707.199 137.179 708.064 140.083C708.929 142.925 709.299 145.89 709.176 148.979C709.176 149.659 709.145 150.307 709.083 150.925C709.021 151.543 708.96 152.192 708.898 152.871H673.591C673.776 155.342 674.394 157.597 675.444 159.636C676.556 161.675 678.101 163.312 680.078 164.548C682.055 165.721 684.495 166.308 687.398 166.308C689.005 166.308 690.549 166.123 692.032 165.752C693.576 165.32 694.936 164.671 696.109 163.806C697.345 162.88 698.21 161.706 698.704 160.285H708.342C707.539 163.559 706.087 166.277 703.986 168.44C701.948 170.54 699.446 172.085 696.48 173.073C693.576 174.062 690.518 174.556 687.306 174.556ZM673.776 145.272H699.724C699.662 142.863 699.106 140.731 698.056 138.878C697.005 136.963 695.553 135.48 693.7 134.43C691.847 133.318 689.623 132.762 687.028 132.762C684.186 132.762 681.807 133.349 679.892 134.523C678.039 135.696 676.587 137.241 675.537 139.156C674.548 141.009 673.961 143.048 673.776 145.272ZM738.758 174.556C733.877 174.556 729.831 173.475 726.618 171.313C723.467 169.088 721.089 166.092 719.483 162.324C717.938 158.555 717.166 154.323 717.166 149.628C717.166 144.871 717.969 140.608 719.575 136.839C721.182 133.009 723.622 130.013 726.896 127.85C730.17 125.626 734.31 124.514 739.314 124.514C741.167 124.514 743.021 124.73 744.874 125.163C746.789 125.595 748.55 126.275 750.156 127.202C751.824 128.067 753.245 129.24 754.419 130.723V108.482H763.964V174H754.79L754.419 167.328C753.307 168.996 751.917 170.386 750.249 171.498C748.643 172.548 746.851 173.32 744.874 173.815C742.897 174.309 740.858 174.556 738.758 174.556ZM740.333 166.03C743.484 166.03 746.079 165.258 748.118 163.714C750.218 162.169 751.794 160.13 752.844 157.597C753.894 155.064 754.419 152.315 754.419 149.35C754.419 146.323 753.894 143.604 752.844 141.195C751.855 138.724 750.311 136.778 748.21 135.357C746.172 133.874 743.546 133.133 740.333 133.133C736.997 133.133 734.341 133.905 732.364 135.449C730.387 136.932 728.935 138.94 728.008 141.473C727.143 144.006 726.711 146.786 726.711 149.813C726.711 152.037 726.958 154.138 727.452 156.115C727.946 158.03 728.719 159.76 729.769 161.304C730.881 162.787 732.302 163.961 734.032 164.826C735.762 165.629 737.862 166.03 740.333 166.03ZM775.671 174V125.163H785.216V174H775.671ZM780.397 118.676C778.544 118.676 777.03 118.12 775.856 117.008C774.744 115.834 774.188 114.351 774.188 112.56C774.188 110.768 774.775 109.316 775.949 108.204C777.123 107.03 778.606 106.444 780.397 106.444C782.065 106.444 783.517 107.03 784.753 108.204C786.05 109.316 786.699 110.768 786.699 112.56C786.699 114.351 786.081 115.834 784.845 117.008C783.671 118.12 782.189 118.676 780.397 118.676ZM812.597 174.556C810.373 174.556 808.211 174.278 806.11 173.722C804.071 173.104 802.249 172.208 800.643 171.035C799.036 169.799 797.739 168.285 796.751 166.494C795.824 164.64 795.36 162.478 795.36 160.007C795.36 157.041 795.916 154.601 797.029 152.686C798.202 150.709 799.747 149.195 801.662 148.145C803.577 147.033 805.77 146.261 808.242 145.828C810.775 145.334 813.4 145.087 816.119 145.087H828.073C828.073 142.678 827.702 140.577 826.961 138.785C826.22 136.932 825.046 135.511 823.439 134.523C821.895 133.472 819.825 132.947 817.231 132.947C815.686 132.947 814.203 133.133 812.782 133.503C811.423 133.812 810.249 134.337 809.261 135.079C808.272 135.82 807.593 136.808 807.222 138.044H797.214C797.585 135.696 798.419 133.689 799.716 132.02C801.013 130.291 802.62 128.87 804.535 127.758C806.45 126.646 808.489 125.842 810.651 125.348C812.875 124.792 815.13 124.514 817.416 124.514C824.459 124.514 829.525 126.584 832.614 130.723C835.765 134.801 837.34 140.423 837.34 147.589V174H829.092L828.722 167.791C827.301 169.706 825.602 171.158 823.625 172.147C821.71 173.135 819.794 173.784 817.879 174.093C815.964 174.402 814.203 174.556 812.597 174.556ZM814.08 166.494C816.86 166.494 819.3 166.03 821.401 165.104C823.501 164.115 825.138 162.725 826.312 160.934C827.486 159.08 828.073 156.918 828.073 154.447V152.408H819.362C817.57 152.408 815.81 152.47 814.08 152.593C812.412 152.655 810.867 152.902 809.446 153.335C808.087 153.705 806.975 154.354 806.11 155.281C805.307 156.207 804.905 157.536 804.905 159.265C804.905 160.934 805.338 162.293 806.203 163.343C807.068 164.393 808.211 165.196 809.632 165.752C811.053 166.247 812.535 166.494 814.08 166.494Z" fill="#583BF2"/>
<path fill-rule="evenodd" clip-rule="evenodd" d="M98.8033 168.503C76.7515 168.503 57.8332 155.087 49.7651 135.972L30.7012 144.339C41.9918 170.783 68.2333 189.315 98.8033 189.315C129.194 189.315 155.306 171 166.705 144.805L147.643 136.436C139.466 155.304 120.676 168.503 98.8033 168.503Z" fill="#583BF2"/>
<path d="M83.6287 75.9339L94.6973 43.9534C95.9397 40.364 101.071 40.3997 102.263 44.006L112.798 75.8938C113.166 77.0085 114.014 77.9038 115.113 78.3378L141.188 88.6354C144.482 89.9361 144.556 94.5324 141.307 95.9379L114.998 107.318C113.967 107.764 113.173 108.62 112.813 109.677L102.251 140.663C101.038 144.222 95.975 144.258 94.7104 140.717L83.6119 109.637C83.2431 108.604 82.4588 107.769 81.446 107.331L55.1057 95.9379C51.8561 94.5324 51.931 89.9361 55.2247 88.6354L81.3311 78.3253C82.4119 77.8985 83.251 77.0251 83.6287 75.9339Z" fill="#583BF2"/>
<path d="M514.299 173.425V73.1455H535.112V173.425H514.299Z" fill="#583BF2"/>
<path fill-rule="evenodd" clip-rule="evenodd" d="M437.614 175.508C430.424 175.508 424.243 174.184 419.072 171.535C414.026 168.76 410.179 164.976 407.53 160.183C404.881 155.389 403.557 150.028 403.557 144.1C403.557 134.135 406.521 126.756 412.449 121.963C418.378 117.044 427.081 114.584 438.56 114.584H469.779V109.097C469.779 101.529 468.076 96.357 464.67 93.582C461.391 90.6808 456.156 89.2302 448.966 89.2302C442.533 89.2302 437.803 90.2393 434.776 92.2575C431.748 94.2757 429.982 97.0507 429.478 100.583H409.233C409.611 94.7803 411.44 89.6717 414.72 85.2569C417.999 80.8421 422.603 77.3733 428.532 74.8505C434.586 72.3278 441.713 71.0664 449.912 71.0664C458.111 71.0664 465.238 72.3278 471.293 74.8505C477.473 77.3733 482.203 81.3466 485.483 86.7705C488.889 92.0683 490.592 99.132 490.592 107.962V147.884V173.419H471.676V158.48H471.671C469.274 163.147 465.112 167.183 459.183 170.589C453.381 173.868 446.191 175.508 437.614 175.508ZM456.345 154.885C452.435 156.525 448.083 157.344 443.29 157.344C436.857 157.344 432.127 156.083 429.099 153.56C426.198 151.038 424.748 147.695 424.748 143.532C424.748 139.118 426.324 135.775 429.478 133.504C432.757 131.234 437.046 130.099 442.344 130.099H469.779V135.586C469.779 140.253 468.517 144.226 465.995 147.506C463.598 150.785 460.382 153.245 456.345 154.885Z" fill="#583BF2"/>
<path d="M345.834 175.508C337.005 175.508 328.869 173.679 321.427 170.021C313.985 166.237 307.993 160.561 303.452 152.993C298.911 145.424 296.641 135.838 296.641 124.233V120.449C296.641 109.349 298.785 100.141 303.074 92.8251C307.488 85.5092 313.291 80.0852 320.481 76.5534C327.67 72.8954 335.491 71.0664 343.942 71.0664C359.205 71.0664 370.873 75.1659 378.945 83.3648C387.144 91.5638 391.244 103.295 391.244 118.557V129.153H317.832C318.084 135.964 319.535 141.451 322.183 145.614C324.832 149.776 328.238 152.804 332.401 154.696C336.563 156.462 341.041 157.344 345.834 157.344C353.024 157.344 358.259 156.209 361.538 153.939C364.944 151.668 367.278 148.704 368.539 145.046H389.352C387.333 155.011 382.351 162.579 374.404 167.751C366.584 172.922 357.06 175.508 345.834 175.508ZM344.888 89.2302C340.221 89.2302 335.869 90.0501 331.833 91.6899C327.797 93.3297 324.517 95.9155 321.994 99.4473C319.472 102.979 318.084 107.709 317.832 113.638H370.431C370.305 107.331 369.107 102.412 366.836 98.8797C364.566 95.3479 361.538 92.8882 357.754 91.5007C353.97 89.987 349.681 89.2302 344.888 89.2302Z" fill="#583BF2"/>
<path d="M233.153 173.425L190.582 73.1455H213.287L243.938 150.72L271.562 73.1455H292.753L253.966 173.425H233.153Z" fill="#583BF2"/>
<path d="M514.316 32.1875H535.134V57.1794H514.316V32.1875Z" fill="#583BF2"/>
</g>
<defs>
<clipPath id="clip0_976_3489">
<rect width="874" height="221" fill="white"/>
</clipPath>
</defs>
</svg>
